<?xml version="1.0" standalone="no"?>
<!DOCTYPE svg PUBLIC "-//W3C//DTD SVG 20010904//EN"
 "http://www.w3.org/TR/2001/REC-SVG-20010904/DTD/svg10.dtd">
<svg version="1.0" xmlns="http://www.w3.org/2000/svg"
 width="1472.000000pt" height="1472.000000pt" viewBox="0 0 1472.000000 1472.000000"
 preserveAspectRatio="xMidYMid meet">
<metadata>
Created by potrace 1.14, written by Peter Selinger 2001-2017
</metadata>
<g transform="translate(0.000000,1472.000000) scale(0.100000,-0.100000)"
fill="#000000" stroke="none">
<path d="M1073 9862 c-49 -4 -51 -9 -33 -100 5 -28 12 -73 16 -99 3 -26 9 -66
13 -88 16 -90 46 -55 -532 -633 l-538 -539 6 -44 c5 -43 12 -103 20 -184 3
-22 7 -62 11 -90 3 -27 7 -61 8 -74 1 -17 16 -33 46 -53 25 -15 51 -28 58 -28
6 0 12 -4 12 -10 0 -5 4 -10 9 -10 5 0 49 -24 98 -54 180 -108 185 -110 200
-90 7 10 13 22 13 26 0 35 158 194 269 269 42 29 78 55 81 58 12 14 185 114
290 168 162 84 354 163 366 151 2 -3 -12 -23 -31 -45 -19 -23 -35 -46 -35 -52
0 -6 -4 -11 -8 -11 -8 0 -118 -164 -160 -240 -24 -42 -116 -225 -117 -230 0
-3 -8 -21 -17 -40 -47 -101 -106 -275 -143 -420 -11 -47 -45 -211 -50 -245 -3
-23 -7 -50 -9 -61 -2 -11 -7 -54 -11 -95 -4 -41 -9 -90 -11 -109 -6 -61 -5
-332 2 -410 3 -41 7 -84 7 -94 1 -11 -10 -32 -25 -47 -36 -36 -38 -92 -5 -130
21 -24 27 -26 127 -27 58 0 112 -1 120 -2 8 0 -10 -11 -40 -24 -223 -92 -473
-294 -610 -491 -19 -27 -40 -55 -47 -62 -15 -17 -142 -272 -148 -298 -2 -11
-14 -55 -26 -97 l-22 -78 -36 -1 c-99 -2 -119 -9 -159 -52 -38 -40 -34 -115 8
-157 29 -28 66 -38 155 -38 50 0 95 -1 100 -2 6 -1 15 -1 20 0 11 2 157 2 171
-1 5 -1 14 0 19 1 24 4 254 2 263 -4 5 -3 12 -3 16 1 3 4 75 6 159 4 83 -1
157 -2 162 -2 6 1 38 2 73 3 34 2 62 1 62 -2 0 -4 56 -4 70 0 19 6 170 3 170
-3 0 -5 5 -5 10 -2 10 6 95 10 115 5 6 -1 15 -1 20 0 31 6 175 4 175 -3 0 -5
5 -5 11 -1 6 3 61 6 122 5 144 -2 132 -2 205 1 34 2 62 -1 62 -5 0 -5 5 -5 12
-1 10 6 165 9 193 4 6 -1 15 -1 20 0 24 4 254 2 263 -4 5 -3 12 -3 16 1 3 4
75 6 159 4 83 -1 157 -2 162 -2 6 1 38 2 73 3 34 2 62 1 62 -2 0 -3 24 -4 52
-2 29 2 73 4 98 4 68 0 104 16 133 60 18 28 24 48 20 71 -6 44 -42 94 -73 103
-14 4 -28 8 -32 9 -5 2 -33 3 -63 4 l-54 1 -11 43 c-31 121 -128 356 -151 365
-5 2 -9 8 -9 13 0 6 -19 37 -42 71 -24 33 -47 67 -53 76 -38 59 -203 221 -275
272 -19 14 -37 27 -40 30 -16 17 -149 96 -227 135 -51 25 -93 47 -93 48 0 1
51 1 113 1 71 -1 118 2 128 10 26 19 37 49 33 91 -4 52 -41 84 -90 78 -44 -5
-47 21 -4 45 16 9 30 20 30 25 0 4 4 7 9 7 15 0 109 87 188 172 39 43 130 186
172 270 71 143 131 334 156 493 21 131 25 162 31 243 9 116 4 537 -6 537 0 0
-3 18 -5 40 -9 108 -18 177 -31 255 -9 47 -16 92 -18 100 -1 8 -5 26 -9 40 -4
14 -9 36 -11 50 -2 14 -9 37 -15 53 -6 15 -9 27 -7 27 3 0 -5 24 -16 53 -10
28 -21 57 -22 62 -10 34 -41 106 -83 190 -111 220 -276 406 -486 548 -63 43
-278 155 -308 161 -8 2 -21 6 -29 9 -16 6 -124 41 -175 57 -32 9 -230 46 -305
56 -52 6 -444 12 -507 6z"/>
<path d="M4858 9865 c-2 -2 -23 -5 -47 -6 l-43 -3 7 -51 c12 -86 20 -137 29
-183 3 -13 8 -49 11 -80 l7 -57 -540 -541 c-523 -524 -539 -541 -536 -575 2
-18 6 -56 10 -84 6 -54 10 -91 18 -170 10 -118 15 -129 62 -158 25 -15 49 -27
54 -27 6 0 10 -4 10 -9 0 -5 8 -11 18 -14 9 -4 37 -18 62 -33 175 -103 211
-124 218 -124 4 0 16 21 27 47 20 45 143 183 164 183 6 0 11 4 11 8 0 19 247
185 370 250 30 16 75 40 100 54 25 14 47 26 50 26 3 0 41 17 85 37 110 51 113
52 173 74 51 19 65 15 39 -11 -7 -7 -35 -44 -62 -83 -27 -38 -53 -71 -57 -73
-5 -2 -8 -8 -8 -14 0 -5 -11 -24 -25 -42 -14 -18 -25 -36 -25 -39 0 -3 -11
-22 -24 -42 -14 -20 -46 -77 -71 -128 -26 -51 -50 -99 -55 -107 -4 -8 -12 -26
-18 -40 -5 -14 -18 -42 -27 -63 -46 -105 -125 -354 -139 -437 -1 -8 -5 -26 -9
-40 -10 -38 -24 -114 -42 -231 -3 -19 -7 -53 -9 -75 -1 -22 -5 -45 -8 -50 -7
-12 -2 -510 5 -551 5 -27 1 -38 -24 -63 -26 -25 -30 -36 -26 -68 5 -50 22 -79
49 -85 13 -3 65 -5 116 -4 52 1 96 0 98 -3 3 -2 -37 -25 -88 -51 -80 -39 -157
-86 -263 -159 -53 -37 -181 -164 -249 -248 -54 -67 -126 -169 -126 -179 0 -3
-10 -22 -22 -42 -13 -20 -23 -38 -23 -41 -1 -3 -11 -27 -24 -54 -23 -49 -49
-116 -56 -146 -15 -56 -34 -123 -38 -126 -2 -2 -33 -5 -68 -7 -35 -2 -73 -9
-84 -14 -61 -33 -83 -101 -53 -162 28 -58 69 -71 218 -71 8 0 43 1 78 2 34 2
62 -1 62 -5 0 -5 5 -5 12 -1 10 6 165 9 193 4 6 -1 15 -1 20 0 24 4 254 2 263
-4 5 -3 12 -3 16 1 3 4 75 6 159 4 83 -1 157 -2 162 -2 6 1 38 2 73 3 34 2 62
1 62 -2 0 -4 56 -4 70 0 19 6 170 3 170 -3 0 -5 5 -5 10 -2 10 6 95 10 115 5
6 -1 15 -1 20 0 31 6 175 4 175 -3 0 -5 5 -5 11 -1 6 3 61 6 122 5 144 -2 132
-2 205 1 34 2 62 -1 62 -5 0 -5 5 -5 12 -1 10 6 165 9 193 4 6 -1 15 -1 20 0
24 4 254 2 263 -4 5 -3 12 -3 16 1 3 4 75 6 159 4 83 -1 157 -2 162 -2 6 1 38
2 73 3 34 2 62 0 62 -4 0 -4 6 -5 13 -3 6 2 32 6 57 9 25 2 54 8 65 12 25 10
65 54 66 74 0 8 2 24 4 35 5 25 -32 90 -59 105 -28 15 -50 18 -113 19 -50 1
-52 2 -58 34 -11 53 -65 207 -88 251 -11 23 -22 43 -22 46 -5 18 -36 74 -69
125 -119 184 -279 344 -457 458 -72 46 -231 127 -249 127 -7 0 -10 3 -7 6 4 4
58 7 120 8 77 1 119 5 129 14 22 18 31 77 18 117 -12 37 -34 49 -87 48 -49 -1
-41 21 22 63 30 20 55 41 55 45 0 5 5 9 10 9 10 0 89 77 140 136 88 102 218
336 245 444 1 3 5 12 8 20 6 14 38 122 43 145 18 77 34 161 39 201 4 27 9 60
11 74 17 88 23 423 11 580 -11 138 -16 203 -21 235 -2 17 -7 53 -11 80 -4 28
-9 59 -11 70 -3 11 -7 36 -10 55 -3 19 -10 53 -16 75 -5 22 -12 51 -14 63 -19
100 -125 357 -190 460 -19 29 -34 56 -34 61 0 5 -7 11 -15 15 -8 3 -15 11 -15
17 0 26 -159 197 -260 280 -67 55 -93 72 -202 139 -156 93 -453 191 -658 216
-25 3 -58 7 -75 10 -37 7 -451 15 -457 9z"/>
<path d="M8575 9863 c-69 -14 -67 -11 -60 -51 4 -20 9 -50 11 -67 2 -16 9 -55
14 -85 5 -30 12 -77 15 -104 4 -28 8 -53 11 -57 2 -4 -239 -252 -537 -550
l-542 -543 1 -40 c1 -23 4 -51 6 -63 3 -12 8 -53 12 -90 4 -37 8 -79 10 -93
16 -139 18 -146 42 -153 17 -6 87 -46 132 -75 14 -9 34 -22 45 -28 11 -6 36
-20 55 -31 116 -66 151 -85 154 -82 2 2 13 25 26 51 57 116 283 296 560 446
91 50 241 123 260 126 3 1 10 4 16 8 6 4 37 16 70 28 32 12 67 25 77 31 9 5
17 5 17 1 0 -8 -66 -100 -80 -112 -3 -3 -21 -30 -40 -60 -19 -30 -39 -60 -45
-66 -5 -6 -19 -28 -30 -50 -11 -21 -23 -41 -27 -44 -9 -7 -148 -281 -148 -292
0 -5 -11 -33 -24 -61 -13 -29 -26 -63 -30 -77 -4 -14 -11 -34 -16 -45 -9 -22
-38 -111 -45 -141 -3 -10 -18 -74 -35 -142 -16 -68 -32 -138 -34 -155 -15
-105 -18 -124 -22 -147 -19 -104 -25 -518 -10 -631 6 -47 5 -57 -9 -62 -21 -9
-44 -65 -40 -98 4 -39 26 -68 55 -73 14 -3 69 -4 123 -3 53 1 97 -1 97 -5 0
-5 -5 -8 -11 -8 -16 0 -191 -89 -226 -116 -17 -13 -35 -24 -40 -24 -4 0 -20
-11 -35 -25 -15 -14 -31 -25 -37 -25 -5 0 -11 -3 -13 -8 -1 -4 -16 -17 -32
-30 -132 -102 -282 -283 -367 -442 -60 -113 -126 -289 -138 -370 -1 -3 -29 -4
-63 -4 -95 3 -145 -32 -155 -104 -7 -55 17 -103 65 -124 34 -16 64 -18 262
-18 8 0 43 1 78 2 34 2 62 -1 62 -5 0 -5 5 -5 12 -1 10 6 165 9 193 4 6 -1 15
-1 20 0 24 4 254 2 263 -4 5 -3 12 -3 16 1 3 4 75 6 159 4 83 -1 157 -2 162
-2 6 1 38 2 73 3 34 2 62 1 62 -2 0 -4 56 -4 70 0 19 6 170 3 170 -3 0 -5 5
-5 10 -2 10 6 95 10 115 5 6 -1 15 -1 20 0 31 6 175 4 175 -3 0 -5 5 -5 11 -1
6 3 61 6 122 5 144 -2 132 -2 205 1 34 2 62 -1 62 -5 0 -5 5 -5 12 -1 10 6
165 9 193 4 6 -1 15 -1 20 0 24 4 254 2 263 -4 5 -3 12 -3 16 1 3 4 75 6 159
4 83 -1 157 -2 162 -2 6 1 45 2 88 3 71 2 80 4 111 33 63 57 54 154 -18 193
-38 20 -34 19 -104 21 l-59 1 -13 58 c-7 31 -16 62 -20 67 -5 6 -9 15 -10 20
-3 25 -13 61 -21 70 -4 6 -8 13 -8 17 -2 16 -53 121 -88 180 -117 202 -314
401 -518 524 -27 17 -89 50 -137 73 -49 23 -88 43 -88 44 0 1 54 2 120 1 119
-1 121 0 141 25 16 20 20 36 17 73 -6 58 -25 78 -78 80 -63 2 -61 15 6 63 82
59 153 125 206 192 24 30 53 67 65 81 13 15 23 31 23 36 0 5 6 17 14 25 27 29
114 215 150 319 19 56 33 102 31 102 -3 0 0 12 6 28 6 15 13 36 15 47 2 11 6
31 9 45 3 14 8 41 11 60 3 19 7 42 9 50 2 8 7 42 10 75 4 33 10 89 14 124 10
84 3 576 -8 576 -1 0 -4 29 -6 65 -3 36 -7 76 -10 90 -2 13 -7 42 -10 65 -12
82 -27 161 -46 234 -11 42 -21 83 -23 91 -36 144 -177 423 -275 543 -41 50
-219 227 -228 227 -4 0 -19 10 -33 23 -14 12 -50 38 -80 57 -172 110 -353 184
-575 235 -71 16 -85 19 -165 30 -25 4 -56 9 -70 12 -30 6 -457 12 -485 6z"/>
<path d="M12338 9865 c-2 -2 -21 -5 -42 -7 -20 -1 -39 -5 -41 -8 -2 -3 0 -26
5 -50 4 -25 11 -65 15 -90 3 -25 8 -54 9 -65 9 -55 19 -122 20 -140 1 -14
-161 -183 -537 -560 l-538 -540 5 -65 c3 -36 8 -81 10 -100 3 -19 8 -62 11
-95 4 -33 8 -69 10 -80 1 -11 3 -34 4 -50 1 -26 9 -35 63 -65 33 -19 73 -42
87 -50 14 -9 60 -35 101 -59 41 -24 92 -54 112 -67 47 -30 52 -30 67 4 17 38
62 103 87 127 62 58 99 89 180 150 49 37 96 70 104 73 8 3 17 9 20 12 3 4 48
32 101 63 164 97 500 249 515 235 3 -3 -18 -37 -46 -74 -101 -135 -181 -263
-248 -399 -36 -72 -98 -206 -100 -215 0 -3 -6 -18 -12 -35 -7 -16 -13 -34 -14
-40 -1 -5 -4 -14 -7 -20 -15 -25 -94 -304 -104 -365 -2 -14 -7 -41 -10 -60 -4
-19 -9 -45 -10 -57 -2 -12 -6 -34 -9 -50 -26 -131 -39 -494 -22 -675 7 -81 6
-87 -13 -97 -25 -14 -44 -77 -31 -101 5 -10 7 -20 4 -23 -3 -2 7 -14 21 -25
23 -18 39 -21 136 -19 60 1 109 0 109 -3 0 -3 -48 -27 -105 -54 -58 -27 -105
-53 -105 -58 0 -4 -5 -8 -11 -8 -6 0 -48 -26 -92 -57 -118 -83 -289 -258 -370
-379 -59 -89 -153 -270 -162 -313 -2 -9 -10 -35 -19 -58 -8 -24 -14 -43 -12
-43 2 0 -2 -17 -9 -37 -12 -35 -16 -38 -57 -41 -79 -4 -105 -12 -137 -42 -48
-46 -53 -106 -13 -160 21 -28 85 -53 120 -47 12 2 22 0 22 -5 0 -5 5 -6 11 -2
6 3 61 6 122 5 144 -2 132 -2 205 1 34 2 62 -1 62 -5 0 -5 5 -5 12 -1 10 6
165 9 193 4 6 -1 15 -1 20 0 24 5 257 2 262 -4 3 -3 11 -3 16 1 6 4 79 6 161
4 83 -1 156 -2 161 -2 6 1 38 2 73 3 34 2 62 1 62 -2 0 -4 56 -4 70 0 19 6
170 3 170 -3 0 -5 5 -5 10 -2 10 6 95 10 115 5 6 -1 15 -1 20 0 31 6 175 4
175 -3 0 -5 5 -5 11 -1 6 3 61 6 122 5 144 -2 132 -2 205 1 34 2 62 -1 62 -5
0 -5 5 -5 12 -1 10 6 165 9 193 4 6 -1 15 -1 20 0 24 4 254 2 263 -4 5 -3 12
-3 16 1 5 5 258 6 321 1 23 -1 65 11 88 27 76 50 74 155 -5 203 -22 13 -54 20
-98 21 -35 1 -65 3 -66 4 -1 1 -5 18 -8 37 -10 66 -68 221 -118 315 -69 130
-151 239 -272 361 -123 123 -235 202 -401 285 -55 28 -101 51 -102 52 -1 1 53
2 119 2 118 0 121 1 140 25 24 33 28 78 9 110 -21 34 -40 44 -82 43 -50 -2
-43 23 19 62 78 49 272 251 272 282 0 6 7 14 16 17 8 3 12 10 9 16 -3 5 -2 10
3 10 13 0 123 226 152 310 12 36 25 72 28 80 3 8 5 18 4 22 -1 4 5 25 13 47 8
23 14 44 14 46 0 3 2 18 5 33 11 47 16 76 22 112 3 19 7 46 10 60 12 72 19
206 19 390 0 209 -11 381 -30 495 -2 17 -7 55 -11 85 -3 30 -8 58 -10 62 -3 4
-7 26 -10 50 -7 52 -66 258 -95 330 -54 137 -183 360 -248 428 -9 9 -30 32
-47 51 -113 125 -301 262 -449 329 -141 63 -190 82 -280 106 -114 30 -203 49
-280 59 -22 3 -56 8 -75 11 -39 7 -456 14 -462 9z"/>
</g>
</svg>
